<?xml version="1.0" encoding="UTF-8" standalone="no"?>
<!DOCTYPE svg PUBLIC "-//W3C//DTD SVG 1.1//EN" "http://www.w3.org/Graphics/SVG/1.1/DTD/svg11.dtd">
<svg width="100%" height="100%" viewBox="0 0 100 100" version="1.1" xmlns="http://www.w3.org/2000/svg" xmlns:xlink="http://www.w3.org/1999/xlink" xml:space="preserve" style="fill-rule:evenodd;clip-rule:evenodd;stroke-linejoin:round;stroke-miterlimit:1.41421;">
    <path d="M61.991,72.654L78.177,88.902L78.177,94.883L61.991,94.883L61.991,72.654ZM78.177,67.667L61.991,51.419L61.991,5.116L78.177,5.116L78.177,67.667Z"/>
    <path d="M17.823,30.175L19.673,30.175L59.173,69.825L17.823,69.825L17.823,30.175ZM62.385,51.814L40.827,30.175L62.385,30.175L62.385,51.814Z"/>
    <path d="M28.568,39.103L62.036,72.699L62.05,94.884L17.823,50.029L28.568,39.103ZM62.021,51.45L39.076,28.417L61.991,5.117L62.021,51.45Z"/>
    <g transform="matrix(0.965965,0.969649,-0.594192,0.591934,27.7758,-26.0472)">
        <path d="M97.596,45.219C97.596,42.581 96.284,40.438 94.667,40.438L6.979,40.438C5.362,40.438 4.049,42.581 4.049,45.219C4.049,47.858 5.362,50 6.979,50L94.667,50C96.284,50 97.596,47.858 97.596,45.219Z"/>
    </g>
</svg>
