<?xml version="1.0" encoding="UTF-8" standalone="no"?>
<!DOCTYPE svg PUBLIC "-//W3C//DTD SVG 1.1//EN" "http://www.w3.org/Graphics/SVG/1.1/DTD/svg11.dtd">
<svg width="100%" height="100%" viewBox="0 0 100 100" version="1.1" xmlns="http://www.w3.org/2000/svg" xmlns:xlink="http://www.w3.org/1999/xlink" xml:space="preserve" style="fill-rule:evenodd;clip-rule:evenodd;stroke-linejoin:round;stroke-miterlimit:1.41421;">
    <g transform="matrix(1.31681,0,0,1.21309,-15.8403,-10.1812)">
        <path d="M77.855,19.074L77.987,19.076L78.119,19.081L78.25,19.087L78.381,19.095L78.511,19.105L78.641,19.117L78.77,19.13L78.899,19.145L79.027,19.162L79.155,19.181L79.283,19.201L79.41,19.223L79.536,19.247L79.662,19.272L79.787,19.299L79.912,19.327L80.036,19.358L80.16,19.39L80.283,19.423L80.405,19.458L80.527,19.495L80.648,19.533L80.769,19.573L80.889,19.615L81.008,19.658L81.127,19.702L81.245,19.748L81.362,19.796L81.479,19.845L81.595,19.895L81.71,19.947L81.825,20.001L81.939,20.056L82.052,20.112L82.164,20.17L82.276,20.23L82.387,20.29L82.497,20.353L82.606,20.416L82.714,20.481L82.822,20.547L82.929,20.615L83.035,20.684L83.14,20.754L83.245,20.826L83.348,20.899L83.451,20.974L83.553,21.049L83.654,21.126L83.754,21.204L83.853,21.284L83.951,21.365L84.048,21.446L84.145,21.53L84.24,21.614L84.334,21.7L84.428,21.787L84.52,21.875L84.612,21.964L84.702,22.054L84.792,22.146L84.88,22.238L84.968,22.332L85.054,22.427L85.14,22.523L85.224,22.62L85.307,22.719L85.389,22.818L85.47,22.918L85.55,23.02L85.629,23.122L85.707,23.226L85.784,23.331L85.859,23.436L85.934,23.543L86.007,23.65L86.079,23.759L86.15,23.868L86.22,23.979L86.288,24.09L86.355,24.203L86.421,24.316L86.486,24.43L86.55,24.545L86.612,24.661L86.673,24.778L86.733,24.896L86.792,25.015L86.849,25.134L86.905,25.254L86.959,25.376L87.013,25.498L87.065,25.62L87.116,25.744L87.165,25.868L87.213,25.993L87.259,26.119L87.305,26.246L87.348,26.373L87.391,26.502L87.432,26.63L87.471,26.76L87.51,26.89L87.546,27.021L87.582,27.153L87.615,27.285L87.648,27.418L87.679,27.551L87.708,27.686L87.736,27.82L87.762,27.956L87.787,28.092L87.81,28.228L87.832,28.366L87.853,28.503L87.871,28.642L87.888,28.781L87.904,28.92L87.918,29.06L87.93,29.2L87.941,29.341L87.95,29.483L87.957,29.624L87.963,29.767L87.967,29.91L87.97,30.053L87.971,30.197L87.971,69.778L87.97,69.922L87.967,70.065L87.963,70.208L87.957,70.35L87.95,70.492L87.941,70.633L87.93,70.774L87.918,70.915L87.904,71.055L87.888,71.194L87.871,71.333L87.853,71.471L87.832,71.609L87.81,71.746L87.787,71.883L87.762,72.019L87.736,72.154L87.708,72.289L87.679,72.423L87.648,72.557L87.615,72.69L87.582,72.822L87.546,72.954L87.51,73.084L87.471,73.215L87.432,73.344L87.391,73.473L87.348,73.601L87.305,73.729L87.259,73.855L87.213,73.981L87.165,74.106L87.116,74.231L87.065,74.354L87.013,74.477L86.959,74.599L86.905,74.72L86.849,74.84L86.792,74.96L86.733,75.079L86.673,75.196L86.612,75.313L86.55,75.429L86.486,75.544L86.421,75.659L86.355,75.772L86.288,75.884L86.22,75.996L86.15,76.106L86.079,76.216L86.007,76.324L85.934,76.432L85.859,76.539L85.784,76.644L85.707,76.749L85.629,76.852L85.55,76.955L85.47,77.056L85.389,77.157L85.307,77.256L85.224,77.354L85.14,77.451L85.054,77.547L84.968,77.642L84.88,77.736L84.792,77.829L84.702,77.92L84.612,78.011L84.52,78.1L84.428,78.188L84.334,78.275L84.24,78.36L84.145,78.445L84.048,78.528L83.951,78.61L83.853,78.691L83.754,78.77L83.654,78.849L83.553,78.925L83.451,79.001L83.348,79.075L83.245,79.148L83.14,79.22L83.035,79.291L82.929,79.36L82.822,79.427L82.714,79.494L82.606,79.559L82.497,79.622L82.387,79.684L82.276,79.745L82.164,79.804L82.052,79.862L81.939,79.919L81.825,79.974L81.71,80.027L81.595,80.079L81.479,80.13L81.362,80.179L81.245,80.227L81.127,80.273L81.008,80.317L80.889,80.36L80.769,80.402L80.648,80.441L80.527,80.48L80.405,80.516L80.283,80.551L80.16,80.585L80.036,80.617L79.912,80.647L79.787,80.676L79.662,80.703L79.536,80.728L79.41,80.752L79.283,80.774L79.155,80.794L79.027,80.813L78.899,80.829L78.77,80.844L78.641,80.858L78.511,80.869L78.381,80.879L78.25,80.887L78.119,80.894L77.987,80.898L77.855,80.901L77.723,80.902L22.277,80.902L22.145,80.901L22.013,80.898L21.881,80.894L21.75,80.887L21.619,80.879L21.489,80.869L21.359,80.858L21.23,80.844L21.101,80.829L20.973,80.813L20.845,80.794L20.717,80.774L20.59,80.752L20.464,80.728L20.338,80.703L20.213,80.676L20.088,80.647L19.964,80.617L19.84,80.585L19.717,80.551L19.595,80.516L19.473,80.48L19.352,80.441L19.231,80.402L19.111,80.36L18.992,80.317L18.873,80.273L18.755,80.227L18.638,80.179L18.521,80.13L18.405,80.079L18.29,80.027L18.175,79.974L18.061,79.919L17.948,79.862L17.836,79.804L17.724,79.745L17.613,79.684L17.503,79.622L17.394,79.559L17.286,79.494L17.178,79.427L17.071,79.36L16.965,79.291L16.86,79.22L16.755,79.148L16.652,79.075L16.549,79.001L16.447,78.925L16.346,78.849L16.246,78.77L16.147,78.691L16.049,78.61L15.952,78.528L15.855,78.445L15.76,78.36L15.666,78.275L15.572,78.188L15.48,78.1L15.388,78.011L15.298,77.92L15.208,77.829L15.12,77.736L15.032,77.642L14.946,77.547L14.86,77.451L14.776,77.354L14.693,77.256L14.611,77.157L14.53,77.056L14.45,76.955L14.371,76.852L14.293,76.749L14.216,76.644L14.141,76.539L14.066,76.432L13.993,76.324L13.921,76.216L13.85,76.106L13.78,75.996L13.712,75.884L13.645,75.772L13.579,75.659L13.514,75.544L13.45,75.429L13.388,75.313L13.327,75.196L13.267,75.079L13.208,74.96L13.151,74.84L13.095,74.72L13.041,74.599L12.987,74.477L12.935,74.354L12.884,74.231L12.835,74.106L12.787,73.981L12.741,73.855L12.695,73.729L12.652,73.601L12.609,73.473L12.568,73.344L12.529,73.215L12.49,73.084L12.454,72.954L12.418,72.822L12.385,72.69L12.352,72.557L12.321,72.423L12.292,72.289L12.264,72.154L12.238,72.019L12.213,71.883L12.19,71.746L12.168,71.609L12.147,71.471L12.129,71.333L12.112,71.194L12.096,71.055L12.082,70.915L12.07,70.774L12.059,70.633L12.05,70.492L12.043,70.35L12.037,70.208L12.033,70.065L12.03,69.922L12.029,69.778L12.029,30.197L12.03,30.053L12.033,29.91L12.037,29.767L12.043,29.624L12.05,29.483L12.059,29.341L12.07,29.2L12.082,29.06L12.096,28.92L12.112,28.781L12.129,28.642L12.147,28.503L12.168,28.366L12.19,28.228L12.213,28.092L12.238,27.956L12.264,27.82L12.292,27.686L12.321,27.551L12.352,27.418L12.385,27.285L12.418,27.153L12.454,27.021L12.49,26.89L12.529,26.76L12.568,26.63L12.609,26.502L12.652,26.373L12.695,26.246L12.741,26.119L12.787,25.993L12.835,25.868L12.884,25.744L12.935,25.62L12.987,25.498L13.041,25.376L13.095,25.254L13.151,25.134L13.208,25.015L13.267,24.896L13.327,24.778L13.388,24.661L13.45,24.545L13.514,24.43L13.579,24.316L13.645,24.203L13.712,24.09L13.78,23.979L13.85,23.868L13.921,23.759L13.993,23.65L14.066,23.543L14.141,23.436L14.216,23.331L14.293,23.226L14.371,23.122L14.45,23.02L14.53,22.918L14.611,22.818L14.693,22.719L14.776,22.62L14.86,22.523L14.946,22.427L15.032,22.332L15.12,22.238L15.208,22.146L15.298,22.054L15.388,21.964L15.48,21.875L15.572,21.787L15.666,21.7L15.76,21.614L15.855,21.53L15.952,21.446L16.049,21.365L16.147,21.284L16.246,21.204L16.346,21.126L16.447,21.049L16.549,20.974L16.652,20.899L16.755,20.826L16.86,20.754L16.965,20.684L17.071,20.615L17.178,20.547L17.286,20.481L17.394,20.416L17.503,20.353L17.613,20.29L17.724,20.23L17.836,20.17L17.948,20.112L18.061,20.056L18.175,20.001L18.29,19.947L18.405,19.895L18.521,19.845L18.638,19.796L18.755,19.748L18.873,19.702L18.992,19.658L19.111,19.615L19.231,19.573L19.352,19.533L19.473,19.495L19.595,19.458L19.717,19.423L19.84,19.39L19.964,19.358L20.088,19.327L20.213,19.299L20.338,19.272L20.464,19.247L20.59,19.223L20.717,19.201L20.845,19.181L20.973,19.162L21.101,19.145L21.23,19.13L21.359,19.117L21.489,19.105L21.619,19.095L21.75,19.087L21.881,19.081L22.013,19.076L22.145,19.074L22.277,19.073L77.723,19.073L77.855,19.074ZM22.296,25.667L22.222,25.668L22.167,25.669L22.112,25.671L22.058,25.674L22.004,25.677L21.951,25.681L21.897,25.686L21.844,25.691L21.792,25.697L21.74,25.704L21.688,25.712L21.636,25.72L21.585,25.729L21.533,25.738L21.483,25.749L21.432,25.76L21.382,25.771L21.332,25.783L21.282,25.796L21.232,25.81L21.183,25.824L21.134,25.838L21.085,25.854L21.037,25.87L20.989,25.887L20.941,25.904L20.893,25.922L20.845,25.94L20.798,25.959L20.751,25.979L20.704,26L20.658,26.021L20.612,26.042L20.566,26.064L20.52,26.087L20.474,26.111L20.429,26.135L20.384,26.159L20.34,26.185L20.295,26.21L20.251,26.237L20.207,26.264L20.164,26.291L20.121,26.319L20.078,26.348L20.035,26.377L19.993,26.407L19.951,26.438L19.909,26.469L19.868,26.5L19.827,26.532L19.786,26.565L19.746,26.598L19.706,26.631L19.667,26.666L19.628,26.7L19.589,26.735L19.55,26.771L19.512,26.807L19.475,26.844L19.437,26.881L19.401,26.919L19.364,26.957L19.328,26.996L19.293,27.035L19.257,27.074L19.223,27.114L19.189,27.155L19.155,27.195L19.121,27.237L19.088,27.278L19.056,27.321L19.024,27.363L18.993,27.406L18.962,27.449L18.931,27.493L18.901,27.537L18.872,27.582L18.843,27.626L18.814,27.672L18.786,27.717L18.759,27.763L18.732,27.809L18.705,27.856L18.679,27.903L18.654,27.95L18.629,27.997L18.605,28.045L18.581,28.094L18.558,28.142L18.535,28.191L18.513,28.24L18.491,28.289L18.47,28.339L18.45,28.389L18.43,28.439L18.411,28.489L18.392,28.54L18.374,28.591L18.356,28.642L18.339,28.694L18.322,28.746L18.307,28.798L18.291,28.85L18.276,28.903L18.262,28.956L18.249,29.009L18.236,29.063L18.223,29.116L18.211,29.17L18.2,29.225L18.19,29.279L18.179,29.334L18.17,29.389L18.161,29.445L18.153,29.501L18.145,29.557L18.139,29.613L18.132,29.67L18.127,29.727L18.121,29.784L18.117,29.842L18.113,29.9L18.11,29.959L18.108,30.018L18.106,30.077L18.105,30.136L18.105,30.217L18.105,69.757L18.105,69.838L18.106,69.898L18.108,69.957L18.11,70.016L18.113,70.074L18.117,70.132L18.121,70.19L18.127,70.248L18.132,70.305L18.139,70.361L18.145,70.418L18.153,70.474L18.161,70.53L18.17,70.585L18.179,70.64L18.19,70.695L18.2,70.75L18.211,70.804L18.223,70.858L18.236,70.912L18.249,70.965L18.262,71.019L18.276,71.072L18.291,71.124L18.307,71.177L18.322,71.229L18.339,71.281L18.356,71.332L18.374,71.383L18.392,71.434L18.411,71.485L18.43,71.536L18.45,71.586L18.47,71.636L18.491,71.685L18.513,71.735L18.535,71.784L18.558,71.833L18.581,71.881L18.605,71.929L18.629,71.977L18.654,72.025L18.679,72.072L18.705,72.119L18.732,72.165L18.759,72.212L18.786,72.257L18.814,72.303L18.843,72.348L18.872,72.393L18.901,72.437L18.931,72.482L18.962,72.525L18.993,72.569L19.024,72.612L19.056,72.654L19.088,72.696L19.121,72.738L19.155,72.779L19.189,72.82L19.223,72.86L19.258,72.9L19.293,72.94L19.328,72.979L19.364,73.018L19.401,73.056L19.437,73.094L19.475,73.131L19.512,73.167L19.55,73.204L19.589,73.239L19.628,73.274L19.667,73.309L19.706,73.343L19.746,73.377L19.786,73.41L19.827,73.443L19.868,73.475L19.909,73.506L19.951,73.537L19.993,73.567L20.035,73.597L20.078,73.627L20.121,73.655L20.164,73.683L20.207,73.711L20.251,73.738L20.295,73.764L20.34,73.79L20.384,73.815L20.429,73.84L20.474,73.864L20.52,73.887L20.566,73.91L20.611,73.932L20.658,73.954L20.704,73.975L20.751,73.995L20.798,74.015L20.845,74.034L20.893,74.053L20.941,74.071L20.989,74.088L21.037,74.105L21.085,74.121L21.134,74.136L21.183,74.151L21.232,74.165L21.282,74.179L21.332,74.191L21.382,74.204L21.432,74.215L21.483,74.226L21.533,74.236L21.585,74.246L21.636,74.255L21.688,74.263L21.74,74.27L21.792,74.277L21.844,74.283L21.897,74.289L21.95,74.294L22.004,74.298L22.058,74.301L22.112,74.304L22.167,74.306L22.222,74.307L22.296,74.307L77.704,74.307L77.778,74.307L77.833,74.306L77.888,74.304L77.942,74.301L77.996,74.298L78.05,74.294L78.103,74.289L78.156,74.283L78.208,74.277L78.26,74.27L78.312,74.263L78.364,74.255L78.415,74.246L78.466,74.236L78.517,74.226L78.568,74.215L78.618,74.204L78.668,74.191L78.718,74.179L78.768,74.165L78.817,74.151L78.866,74.136L78.915,74.121L78.963,74.105L79.011,74.088L79.059,74.071L79.107,74.053L79.155,74.034L79.202,74.015L79.249,73.995L79.296,73.975L79.342,73.954L79.389,73.932L79.434,73.91L79.48,73.887L79.526,73.864L79.571,73.84L79.616,73.815L79.66,73.79L79.705,73.764L79.749,73.738L79.793,73.711L79.836,73.683L79.879,73.655L79.922,73.627L79.965,73.597L80.007,73.567L80.049,73.537L80.091,73.506L80.132,73.475L80.173,73.442L80.214,73.41L80.254,73.377L80.294,73.343L80.333,73.309L80.372,73.274L80.411,73.239L80.45,73.204L80.488,73.167L80.525,73.131L80.563,73.094L80.599,73.056L80.636,73.018L80.672,72.979L80.707,72.94L80.742,72.901L80.777,72.86L80.811,72.82L80.845,72.779L80.879,72.738L80.912,72.696L80.944,72.654L80.976,72.612L81.007,72.569L81.038,72.525L81.069,72.482L81.099,72.437L81.128,72.393L81.157,72.348L81.186,72.303L81.214,72.257L81.241,72.212L81.268,72.165L81.295,72.119L81.321,72.072L81.346,72.025L81.371,71.977L81.395,71.929L81.419,71.881L81.442,71.833L81.465,71.784L81.487,71.735L81.509,71.686L81.53,71.636L81.55,71.586L81.57,71.536L81.589,71.485L81.608,71.434L81.626,71.383L81.644,71.332L81.661,71.281L81.678,71.229L81.693,71.177L81.709,71.124L81.724,71.072L81.738,71.019L81.751,70.965L81.764,70.912L81.777,70.858L81.789,70.804L81.8,70.75L81.81,70.695L81.82,70.641L81.83,70.585L81.839,70.53L81.847,70.474L81.855,70.418L81.861,70.362L81.868,70.305L81.873,70.248L81.879,70.19L81.883,70.133L81.887,70.074L81.89,70.016L81.892,69.957L81.894,69.898L81.895,69.838L81.895,69.757L81.895,30.217L81.895,30.137L81.894,30.077L81.892,30.017L81.89,29.959L81.887,29.9L81.883,29.842L81.879,29.785L81.873,29.727L81.868,29.67L81.861,29.613L81.855,29.557L81.847,29.501L81.839,29.445L81.83,29.389L81.82,29.334L81.81,29.279L81.8,29.225L81.789,29.17L81.777,29.116L81.764,29.063L81.751,29.009L81.738,28.956L81.724,28.903L81.709,28.85L81.693,28.798L81.678,28.746L81.661,28.694L81.644,28.642L81.626,28.591L81.608,28.54L81.589,28.489L81.57,28.439L81.55,28.389L81.53,28.339L81.508,28.289L81.487,28.24L81.465,28.191L81.442,28.142L81.419,28.093L81.395,28.045L81.371,27.998L81.346,27.95L81.321,27.903L81.295,27.856L81.268,27.809L81.241,27.763L81.214,27.717L81.186,27.672L81.157,27.626L81.128,27.581L81.099,27.537L81.069,27.493L81.038,27.449L81.007,27.406L80.976,27.363L80.944,27.321L80.912,27.278L80.879,27.237L80.845,27.195L80.811,27.155L80.777,27.114L80.742,27.074L80.707,27.035L80.672,26.996L80.636,26.957L80.599,26.919L80.563,26.881L80.525,26.844L80.488,26.807L80.45,26.771L80.411,26.735L80.372,26.7L80.333,26.666L80.294,26.631L80.254,26.598L80.214,26.565L80.173,26.532L80.132,26.5L80.091,26.468L80.049,26.438L80.007,26.407L79.965,26.377L79.922,26.348L79.879,26.319L79.836,26.291L79.793,26.264L79.749,26.237L79.705,26.21L79.66,26.185L79.616,26.159L79.571,26.135L79.526,26.111L79.48,26.087L79.434,26.065L79.388,26.042L79.342,26.021L79.296,26L79.249,25.979L79.202,25.96L79.155,25.94L79.107,25.922L79.059,25.904L79.011,25.887L78.963,25.87L78.915,25.854L78.866,25.838L78.817,25.824L78.768,25.81L78.718,25.796L78.668,25.783L78.618,25.771L78.568,25.76L78.517,25.749L78.467,25.738L78.415,25.729L78.364,25.72L78.312,25.712L78.26,25.704L78.208,25.697L78.156,25.691L78.103,25.686L78.049,25.681L77.996,25.677L77.942,25.674L77.888,25.671L77.833,25.669L77.778,25.668L77.704,25.667L22.296,25.667Z"/>
    </g>
    <g transform="matrix(0.220213,0,0,0.319672,57.9893,1)">
        <path d="M0,0L0,100L100,50L0,0Z"/>
    </g>
    <g transform="matrix(-0.220213,0.000145346,-0.000210991,-0.319672,42.0005,100)">
        <path d="M0,0L0,100L100,50L0,0Z"/>
    </g>
    <g transform="matrix(1,0,0,1,0.373063,-0.445394)">
        <path d="M24.851,50.604C24.851,47.979 25.243,45.775 26.028,43.994C26.614,42.682 27.414,41.504 28.428,40.461C29.441,39.418 30.552,38.645 31.759,38.141C33.364,37.461 35.216,37.121 37.313,37.121C41.11,37.121 44.148,38.299 46.428,40.654C48.707,43.01 49.847,46.285 49.847,50.481C49.847,54.641 48.716,57.896 46.454,60.245C44.192,62.595 41.169,63.77 37.384,63.77C33.552,63.77 30.505,62.601 28.243,60.263C25.981,57.925 24.851,54.705 24.851,50.604ZM30.212,50.428C30.212,53.346 30.886,55.558 32.233,57.064C33.581,58.569 35.292,59.322 37.366,59.322C39.44,59.322 41.143,58.575 42.473,57.081C43.803,55.587 44.468,53.346 44.468,50.358C44.468,47.404 43.82,45.201 42.525,43.748C41.23,42.295 39.511,41.568 37.366,41.568C35.222,41.568 33.493,42.304 32.181,43.774C30.868,45.245 30.212,47.463 30.212,50.428Z" style="fill-rule:nonzero;"/>
        <path d="M53.96,63.33L53.96,37.561L59.022,37.561L69.569,54.77L69.569,37.561L74.403,37.561L74.403,63.33L69.183,63.33L58.794,46.525L58.794,63.33L53.96,63.33Z" style="fill-rule:nonzero;"/>
    </g>
</svg>
